<?xml version="1.0" encoding="UTF-8"?>
<!DOCTYPE svg PUBLIC "-//W3C//DTD SVG 1.1//EN" "http://www.w3.org/Graphics/SVG/1.1/DTD/svg11.dtd">
<!-- Creator: CorelDRAW 2019 (64-Bit Evaluation Version) -->
<svg xmlns="http://www.w3.org/2000/svg" xml:space="preserve" width="3in" height="2in" version="1.1" style="shape-rendering:geometricPrecision; text-rendering:geometricPrecision; image-rendering:optimizeQuality; fill-rule:evenodd; clip-rule:evenodd"
viewBox="0 0 3000 2000"
 xmlns:xlink="http://www.w3.org/1999/xlink"
 xmlns:xodm="http://www.corel.com/coreldraw/odm/2003">
 <defs>
  <style type="text/css">
   <![CDATA[
    .str0 {stroke:#373435;stroke-width:6.94;stroke-miterlimit:2.61313}
    .fil0 {fill:none}
    .fil1 {fill:#282829}
   ]]>
  </style>
 </defs>
 <g id="Layer_x0020_1">
  <metadata id="CorelCorpID_0Corel-Layer"/>
  <path class="fil0 str0" d="M1001.27 1751.27c-414.92,0 -751.27,-336.35 -751.27,-751.27 0,-414.92 336.35,-751.27 751.27,-751.27 391.85,0 713.64,300.01 748.2,682.86"/>
  <path class="fil0 str0" d="M1358.85 1409.19c-95.86,83.06 -220.93,133.33 -357.73,133.33 -301.84,0 -546.53,-244.69 -546.53,-546.53 0,-301.84 244.69,-546.53 546.53,-546.53 301.84,0 546.53,244.69 546.53,546.53 0,93.23 -23.35,181 -64.5,257.8"/>
  <path class="fil1 str0" d="M1001.13 449.47c301.84,0 546.53,244.69 546.53,546.53 0,84.57 -19.21,164.66 -53.51,236.14 44.73,-81.48 137.92,-201.99 254.63,-307.8 -28.71,-388.7 -342.03,-675.61 -747.51,-675.61 -405.48,0 -751.27,336.35 -751.27,751.27 0,414.92 336.35,751.27 751.27,751.27 171.54,0 329.64,-57.49 456.11,-154.25 -24.81,-58.12 -58.14,-122.57 -98.69,-187.68 -95.84,82.98 -220.84,133.18 -357.56,133.18 -301.84,0 -546.53,-244.69 -546.53,-546.53 0,-301.84 244.69,-546.53 546.53,-546.53z"/>
  <path class="fil0 str0" d="M1358.69 1409.35c40.55,65.1 73.89,129.56 98.69,187.68"/>
  <path class="fil0 str0" d="M1358.69 1409.35c40.55,65.1 73.89,129.56 98.69,187.68"/>
  <path class="fil1 str0" d="M1358.49 1594.44c27.67,64.81 44.72,121.74 49.37,162.86l1.19 26.33c101.28,-629.55 1237.91,-1653.59 1237.91,-1653.59 -13.07,-0.52 -2.63,-0.13 -27.83,-0.37 -15.59,-0.15 -12.88,-0.24 -27.14,1.82 -10.31,1.49 -227.02,162.26 -235.33,168.64 -172.07,132.15 -477.27,392.91 -706.76,621.63 -94.3,93.98 -174.61,183.87 -225.45,259.61 -10.78,16.45 -29.77,50.86 -38.5,66.76 0.31,-0.44 -3.74,7.53 -1.05,1.91 -81.94,-148.11 -300.41,-286.22 -466.54,-307.96 -10.64,-1.39 -21.13,-3.93 -31.22,-2.72 -15.87,1.9 -35.58,3.12 -53,4.86 -17.25,1.72 -29.23,2.47 -43.17,4.01 -36.98,4.08 -61.37,6.52 -66.87,6.45 -0.2,-0 -0.39,-0.01 -0.54,-0.02 221.27,48.5 412.43,253.3 536.25,452.09 40.56,65.1 73.89,129.56 98.7,187.68z"/>
  <polyline class="fil0 str0" points="2556.19,443.81 2556.19,1753.72 2397.34,1753.72 "/>
  <polyline class="fil0 str0" points="1975.25,1066.21 1889.52,1066.21 1970.25,959.44 2400.69,959.44 2400.69,443.81 2561.4,266.72 2556.19,475.06 "/>
  <polygon class="fil1 str0" points="1873.73,1084.77 1970.04,1084.44 2397.34,1084.44 2397.55,1753.72 2556.19,1753.72 2556.19,475.06 2561.4,266.72 2400.69,443.81 2400.69,959.44 1970.25,959.44 "/>
 </g>
</svg>
