<?xml version="1.0" encoding="UTF-8" standalone="no"?>
<!-- Creator: CorelDRAW 2019 (64-Bit Evaluation Version) -->

<svg
   xmlns:dc="http://purl.org/dc/elements/1.1/"
   xmlns:cc="http://creativecommons.org/ns#"
   xmlns:rdf="http://www.w3.org/1999/02/22-rdf-syntax-ns#"
   xmlns:svg="http://www.w3.org/2000/svg"
   xmlns="http://www.w3.org/2000/svg"
   xmlns:sodipodi="http://sodipodi.sourceforge.net/DTD/sodipodi-0.dtd"
   xmlns:inkscape="http://www.inkscape.org/namespaces/inkscape"
   xml:space="preserve"
   width="1in"
   height="1in"
   version="1.1"
   style="shape-rendering:geometricPrecision; text-rendering:geometricPrecision; image-rendering:optimizeQuality; fill-rule:evenodd; clip-rule:evenodd"
   viewBox="0 0 1000 1000"
   enable-background="new 0 0 32 32"
   id="svg48"
   sodipodi:docname="search_groups.svg"
   inkscape:version="0.92.4 (5da689c313, 2019-01-14)"><metadata
   id="metadata52"><rdf:RDF><cc:Work
       rdf:about=""><dc:format>image/svg+xml</dc:format><dc:type
         rdf:resource="http://purl.org/dc/dcmitype/StillImage" /></cc:Work></rdf:RDF></metadata><sodipodi:namedview
   pagecolor="#ffffff"
   bordercolor="#666666"
   borderopacity="1"
   objecttolerance="10"
   gridtolerance="10"
   guidetolerance="10"
   inkscape:pageopacity="0"
   inkscape:pageshadow="2"
   inkscape:window-width="1680"
   inkscape:window-height="992"
   id="namedview50"
   showgrid="false"
   inkscape:zoom="4.2864583"
   inkscape:cx="-22.968168"
   inkscape:cy="52.268872"
   inkscape:window-x="1672"
   inkscape:window-y="23"
   inkscape:window-maximized="1"
   inkscape:current-layer="svg48" />
 <defs
   id="defs34">
  <style
   type="text/css"
   id="style32">
   <![CDATA[
    .fil0 {fill:none}
    .fil1 {fill:black;fill-rule:nonzero}
   ]]>
  </style>
 </defs>
 <g
   id="Layer_x0020_1"
   transform="matrix(3.0703642,0,0,3.0620971,-765.70776,-460.22328)">
  <metadata
   id="CorelCorpID_0Corel-Layer" />
  <g
   id="background">
   <rect
   class="fil0"
   x="221.36"
   y="116.53"
   width="333.32999"
   height="333.32999"
   id="rect37"
   style="fill:none" />
  </g>
  <path
   class="fil1"
   d="m 469.77,217.44 c 0.67,0.35 1.39,0.7 2.01,1.09 4.44,2.41 9.44,3.91 14.85,3.91 17.27,0 31.25,-13.99 31.25,-31.25 0,-17.26 -13.98,-31.25 -31.25,-31.25 -17.25,0 -31.25,13.99 -31.25,31.25 0,11.04 5.76,20.68 14.39,26.25 z m -149.8,130.01 c 0,-20.83 0,-104.16 0,-104.16 0,0 0.06,-4.69 2.48,-10.43 -21.66,0 -44.15,0 -44.15,0 0,0 -20.83,0 -20.83,20.84 v 72.91 c 0,20.83 20.83,20.83 20.83,20.83 v 104.17 h 62.5 v -83.33 c 0,0 -20.83,0 -20.83,-20.83 z M 403.3,222.44 c 17.26,0 31.25,-13.99 31.25,-31.25 0,-17.26 -13.99,-31.25 -31.25,-31.25 -17.26,0 -31.25,13.99 -31.25,31.25 0,17.26 13.99,31.25 31.25,31.25 z m -83.33,0 c 5.42,0 10.43,-1.5 14.87,-3.92 0.61,-0.37 1.3,-0.71 1.96,-1.07 8.66,-5.55 14.43,-15.19 14.43,-26.26 0,-17.26 -13.99,-31.25 -31.25,-31.25 -17.26,0 -31.25,13.99 -31.25,31.25 0,17.26 13.99,31.25 31.25,31.25 z m 229.17,97.41 c 0,-23.55 0,-66.14 0,-66.14 0,0 0,-20.85 -20.83,-20.85 h -44.15 c 2.44,5.74 2.48,10.43 2.48,10.43 0,0 0,19.67 0,42.28 -3.42,-0.37 -6.9,-0.61 -10.42,-0.61 -3.52,0 -6.98,0.23 -10.42,0.61 0,-17 0,-31.87 0,-31.87 0,0 0,-20.84 -20.83,-20.84 -5.21,0 -83.33,0 -83.33,0 0,0 -20.83,0 -20.83,20.84 v 72.91 c 0,20.83 20.83,20.83 20.83,20.83 v 104.17 h 55.73 c 16.09,13 36.55,20.82 58.85,20.82 51.78,0 93.75,-41.96 93.75,-93.74 0,-22.31 -7.83,-42.76 -20.83,-58.85 z m -72.92,131.76 c -40.26,-0.08 -72.85,-32.66 -72.91,-72.91 0.06,-40.26 32.65,-72.85 72.91,-72.91 40.26,0.06 72.83,32.65 72.92,72.91 -0.08,40.25 -32.66,72.82 -72.92,72.91 z"
   id="path40"
   inkscape:connector-curvature="0"
   style="fill:#000000;fill-rule:nonzero" />
  <g
   id="_2249320583216">
   <g
   id="Guides_26_Forms">
   </g>
   <g
   id="Icons">
    <path
   class="fil1"
   d="m 515.39,411.66 -22.24,-22.24 c 4.47,-5.96 7.14,-13.35 7.14,-21.37 0,-19.74 -16,-35.74 -35.74,-35.74 -19.74,0 -35.74,16 -35.74,35.74 0,19.74 16,35.74 35.74,35.74 8.03,0 15.41,-2.68 21.37,-7.14 l 22.24,22.24 7.22,-7.22 z m -76.37,-43.62 c 0,-14.07 11.46,-25.53 25.53,-25.53 14.07,0 25.53,11.45 25.53,25.53 0,14.08 -11.45,25.53 -25.53,25.53 -14.07,0 -25.53,-11.45 -25.53,-25.53 z"
   id="path43"
   inkscape:connector-curvature="0"
   style="fill:#000000;fill-rule:nonzero" />
   </g>
  </g>
 </g>
</svg>